<svg xmlns="http://www.w3.org/2000/svg" viewBox="0 0 512 512">
  <circle cx="256" cy="256" r="256" fill="#1DB954"/>
  <path d="M374 326c-5 8-15 11-23 6-63-38-143-47-236-27-9 2-18-4-20-13s4-18 13-20c101-22 189-11 260 32 8 5 11 15 6 22z" fill="#111"/>
  <path d="M397 262c-6 10-19 13-29 7-72-44-182-57-267-33-11 3-22-3-25-14s3-22 14-25c97-28 218-14 299 36 10 6 13 19 8 29z" fill="#111"/>
  <path d="M401 186c-9 13-27 17-40 9-84-50-223-55-303-31-15 4-31-4-35-19s4-31 19-35c92-27 245-22 348 39 13 8 18 26 11 40z" fill="#111"/>
</svg>
